<svg width="18" height="15" viewBox="0 0 18 15" fill="none" xmlns="http://www.w3.org/2000/svg">
<path fill-rule="evenodd" clip-rule="evenodd" d="M0.586 0.586C-5.96046e-08 1.172 0 2.114 0 4V7C0 10.771 -1.19209e-07 12.657 1.172 13.828C2.344 14.999 4.229 15 8 15H10C13.771 15 15.657 15 16.828 13.828C17.999 12.656 18 10.771 18 7V4C18 2.114 18 1.172 17.414 0.586C16.828 -5.96046e-08 15.886 0 14 0H4C2.114 0 1.172 -5.96046e-08 0.586 0.586ZM7 5C7 4.73478 6.89464 4.48043 6.70711 4.29289C6.51957 4.10536 6.26522 4 6 4C5.73478 4 5.48043 4.10536 5.29289 4.29289C5.10536 4.48043 5 4.73478 5 5V7C5 7.26522 5.10536 7.51957 5.29289 7.70711C5.48043 7.89464 5.73478 8 6 8C6.26522 8 6.51957 7.89464 6.70711 7.70711C6.89464 7.51957 7 7.26522 7 7V5ZM13 5C13 4.73478 12.8946 4.48043 12.7071 4.29289C12.5196 4.10536 12.2652 4 12 4C11.7348 4 11.4804 4.10536 11.2929 4.29289C11.1054 4.48043 11 4.73478 11 5V7C11 7.26522 11.1054 7.51957 11.2929 7.70711C11.4804 7.89464 11.7348 8 12 8C12.2652 8 12.5196 7.89464 12.7071 7.70711C12.8946 7.51957 13 7.26522 13 7V5Z" fill="black"/>
</svg>
