<svg width="21" height="19" viewBox="0 0 21 19" fill="none" xmlns="http://www.w3.org/2000/svg">
<path d="M2.48643 17.0636L5.40635 16.0888L5.93418 16.3448C7.22361 16.9564 8.63548 17.266 10.0625 17.25C15.087 17.25 18.6875 13.6585 18.6875 9.34375C18.6875 5.01328 15.114 1.4375 10.0625 1.4375C5.01104 1.4375 1.4375 5.01328 1.4375 9.34375C1.44543 11.0012 1.99083 12.6114 2.9918 13.9325L3.48145 14.5771L2.48643 17.0636ZM1.47119 18.9166C1.34117 18.9602 1.20138 18.9657 1.06832 18.9325C0.935266 18.8993 0.814498 18.8286 0.720275 18.729C0.626051 18.6293 0.562306 18.5048 0.536565 18.3701C0.510823 18.2354 0.52416 18.0961 0.575 17.9688L1.84404 14.7973C0.655192 13.227 0.00809368 11.3133 0 9.34375C0 4.57978 3.8543 0 10.0625 0C16.2707 0 20.125 4.57978 20.125 9.34375C20.125 14.1077 16.2303 18.6875 10.0625 18.6875C8.41834 18.7043 6.79204 18.3455 5.30752 17.6386L1.47119 18.9166Z" fill="black"/>
</svg>
