<svg width="38" height="23" viewBox="0 0 38 23" fill="none" xmlns="http://www.w3.org/2000/svg">
<path d="M36.0412 0H1.89691C0.849459 0 0 0.849459 0 1.89691V20.866C0 21.9134 0.849459 22.7629 1.89691 22.7629H36.0412C37.0887 22.7629 37.9381 21.9134 37.9381 20.866V1.89691C37.9381 0.849459 37.0887 0 36.0412 0ZM2.84536 19.9175V16.1237C4.94085 16.1237 6.63918 17.822 6.63918 19.9175H2.84536ZM2.84536 6.63918V2.84536H6.63918C6.63918 4.94085 4.94085 6.63918 2.84536 6.63918ZM18.9691 17.0722C16.3496 17.0722 14.2268 14.5238 14.2268 11.3814C14.2268 8.23851 16.3502 5.69072 18.9691 5.69072C21.588 5.69072 23.7113 8.23851 23.7113 11.3814C23.7113 14.525 21.5874 17.0722 18.9691 17.0722ZM35.0928 19.9175H31.299C31.299 17.822 32.9973 16.1237 35.0928 16.1237V19.9175ZM35.0928 6.63918C32.9973 6.63918 31.299 4.94085 31.299 2.84536H35.0928V6.63918Z" fill="#0069AF"/>
</svg>
