<svg width="35" height="26" viewBox="0 0 35 26" fill="none" xmlns="http://www.w3.org/2000/svg">
<path d="M30.0344 6.32302H25.2921V0H3.16151C1.42268 0 0 1.42268 0 3.16151V20.5498H3.16151C3.16151 23.1739 5.27973 25.2921 7.90378 25.2921C10.5278 25.2921 12.646 23.1739 12.646 20.5498H22.1306C22.1306 23.1739 24.2488 25.2921 26.8729 25.2921C29.4969 25.2921 31.6151 23.1739 31.6151 20.5498H34.7766V12.646L30.0344 6.32302ZM29.244 8.69416L32.3423 12.646H25.2921V8.69416H29.244ZM7.90378 22.1306C7.03436 22.1306 6.32302 21.4192 6.32302 20.5498C6.32302 19.6804 7.03436 18.9691 7.90378 18.9691C8.7732 18.9691 9.48454 19.6804 9.48454 20.5498C9.48454 21.4192 8.7732 22.1306 7.90378 22.1306ZM11.4131 17.3883C10.5436 16.4241 9.31065 15.8076 7.90378 15.8076C6.49691 15.8076 5.26392 16.4241 4.3945 17.3883H3.16151V3.16151H22.1306V17.3883H11.4131ZM26.8729 22.1306C26.0034 22.1306 25.2921 21.4192 25.2921 20.5498C25.2921 19.6804 26.0034 18.9691 26.8729 18.9691C27.7423 18.9691 28.4536 19.6804 28.4536 20.5498C28.4536 21.4192 27.7423 22.1306 26.8729 22.1306Z" fill="#0069AF"/>
</svg>
