<svg width="34" height="38" viewBox="0 0 34 38" fill="none" xmlns="http://www.w3.org/2000/svg">
<path fill-rule="evenodd" clip-rule="evenodd" d="M16.5979 0C14.9619 0 12.228 0.628351 9.65527 1.32784C7.02331 2.03918 4.37001 2.88093 2.80981 3.39072C2.15749 3.60614 1.57917 4.00121 1.14128 4.53053C0.703393 5.05985 0.423704 5.70196 0.334343 6.38309C-1.07885 16.9987 2.20042 24.8661 6.17919 30.0707C7.86644 32.2971 9.87822 34.2577 12.1473 35.8871C13.0626 36.5344 13.9115 37.03 14.6323 37.3691C15.2962 37.6821 16.0099 37.9381 16.5979 37.9381C17.186 37.9381 17.8973 37.6821 18.5636 37.3691C19.4326 36.9467 20.2639 36.4509 21.0486 35.8871C23.3177 34.2578 25.3295 32.2972 27.0167 30.0707C30.9955 24.8661 34.2748 16.9987 32.8616 6.38309C32.7723 5.70163 32.4927 5.05915 32.0549 4.52942C31.617 3.99969 31.0386 3.60419 30.3861 3.38835C28.1212 2.64574 25.8387 1.95791 23.5406 1.32546C20.968 0.630722 18.234 0 16.5979 0ZM16.5979 11.8557C17.4379 11.8544 18.2512 12.1505 18.8938 12.6914C19.5364 13.2323 19.9668 13.9832 20.1088 14.8111C20.2508 15.6389 20.0952 16.4903 19.6696 17.2145C19.244 17.9386 18.5759 18.4888 17.7835 18.7675L18.6964 23.4861C18.7296 23.6577 18.7245 23.8345 18.6813 24.0039C18.6382 24.1733 18.5581 24.3311 18.4469 24.4659C18.3356 24.6008 18.1959 24.7093 18.0378 24.7838C17.8796 24.8583 17.707 24.8969 17.5322 24.8969H15.6637C15.4891 24.8966 15.3167 24.8577 15.1589 24.7831C15.0011 24.7084 14.8617 24.5998 14.7507 24.465C14.6397 24.3302 14.5598 24.1726 14.5168 24.0034C14.4738 23.8341 14.4687 23.6575 14.5019 23.4861L15.4124 18.7675C14.62 18.4888 13.9519 17.9386 13.5263 17.2145C13.1007 16.4903 12.9451 15.6389 13.0871 14.8111C13.2291 13.9832 13.6596 13.2323 14.3021 12.6914C14.9447 12.1505 15.758 11.8544 16.5979 11.8557Z" fill="#0069AF"/>
</svg>
